<svg xmlns="http://www.w3.org/2000/svg" xmlns:xlink="http://www.w3.org/1999/xlink" version="1.1" id="Layer_1" x="0px" y="0px" width="100px" height="100px" viewBox="0 0 100 100" enable-background="new 0 0 100 100" xml:space="preserve">
<path fill="#999999" d="M86.012,39.5l-2.475,14.067c-0.348,1.98-2.222,5.724-6.817,5.724H22.921c-2.009,0-6.022-1.194-6.833-5.718  l-2.515-14.039L0.032,41.05v8.529H7.13v5.629H5.098c0,0-5.098-0.316-5.098,4.781v35.225c0,0,0,4.782,5.098,4.782h6.862  c0,0,5.097,0.316,5.097-4.782V81.635h35.619c0,0,3.024,2.813,6.563,2.954c5.519,0.221,8.141-4.13,8.141-4.13l15.414,3.848v10.907  c0,0,0.739,4.782,5.837,4.782h6.122c0,0,5.1,0.316,5.1-4.782V59.989c0,0,0-4.781-5.1-4.781h-2.024l0.072-5.629h7.076V41.05  L86.012,39.5z"/>
<path fill="#999999" d="M90.393,35.878l0.014-10.44h-6.389v-9.496c0-3.47-2.822-6.293-6.294-6.293H22.324  c-3.47,0-6.294,2.823-6.294,6.293v9.485l-6.182-0.014L9.827,35.93l5.657,0.018c-0.023,0.58,2.91,16.799,2.91,16.799  c0.765,4.269,4.981,4.316,5.16,4.316h52.531c4.336,0,5.114-4.141,5.146-4.316c0,0,2.929-16.5,2.932-16.868H90.393z M62.499,30.562  c0.642-1.911,2.449-3.293,4.573-3.293c2.126,0,3.932,1.382,4.574,3.293H62.499z M20.014,15.942c0-1.273,1.036-2.31,2.31-2.31h55.399  c1.274,0,2.311,1.037,2.311,2.31v14.619h-4.021c-0.73-4.275-4.459-7.541-8.94-7.541c-4.479,0-8.21,3.265-8.94,7.541H43.654v-3.423  c0,0,0-1.7-1.699-1.7H30.388c0,0-1.699,0-1.699,1.7v3.423h-8.675V15.942z M26.709,47.268c-2.785,0-5.042-2.257-5.042-5.041  c0-2.785,2.257-5.042,5.042-5.042c2.784,0,5.041,2.257,5.041,5.042C31.75,45.011,29.493,47.268,26.709,47.268L26.709,47.268z   M72.693,47.268c-2.784,0-5.041-2.257-5.041-5.041c0-2.785,2.257-5.042,5.041-5.042s5.042,2.257,5.042,5.042  C77.735,45.011,75.478,47.268,72.693,47.268L72.693,47.268z M39.04,53.295h-3.66V37.791h3.66V53.295z M45.353,53.295h-3.66V37.791  h3.66V53.295z M51.636,53.295h-3.66V37.791h3.66V53.295z M57.947,53.295h-3.659V37.791h3.659V53.295z M64.266,53.295h-3.66V37.791  h3.66V53.295z"/>
</svg>
